ffmpeg started on 2025-06-07 at 16:39:41
Report written to "D:\Convert\FFMetrics\reports\ssim_report-6.txt"
Log level: 32
Command line:
ffmpeg -hide_banner -nostdin -i "G:\\\xc0\xed\xe8\xec\xe5\\\xce\xed\xe3\xee\xe8\xed\xe3\xe8\\!_36_\xce\xf1\xe5\xed\xfc_2024\\DreamCast\\\xd6\xe8\xea\xeb \xe8\xf1\xf2\xee\xf0\xe8\xe9 - \xcc\xe5\xe6\xf1\xe5\xe7\xee\xed\xfc\xe5 \xe8 \xf1\xe5\xe7\xee\xed \xec\xee\xed\xf1\xf2\xf0\xee\xe2\\DC_Monogatari_Series_Off_and_Monster_Season_06_Telegram_HEVC.mkv" -i "G:\\\xc0\xed\xe8\xec\xe5\\\xce\xed\xe3\xee\xe8\xed\xe3\xe8\\!_36_\xce\xf1\xe5\xed\xfc_2024\\DreamCast\\\xd6\xe8\xea\xeb \xe8\xf1\xf2\xee\xf0\xe8\xe9 - \xcc\xe5\xe6\xf1\xe5\xe7\xee\xed\xfc\xe5 \xe8 \xf1\xe5\xe7\xee\xed \xec\xee\xed\xf1\xf2\xf0\xee\xe2\\DC_Monogatari_Series_Off_and_Monster_Season_06_Telegram.mp4" -lavfi "[0:v]settb=AVTB,setpts=PTS-STARTPTS,format=pix_fmts=yuv420p10,fps=24000/1001,scale=1920:1080:flags=bicubic[main];[1:v]settb=AVTB,setpts=PTS-STARTPTS,format=pix_fmts=yuv420p,fps=24000/1001,scale=1920:1080:flags=bicubic[ref];[main][ref]ssim=eof_action=endall:stats_file='D\\:/Convert/FFMetrics/logs/ssim_logfile-6.txt'" -f null -
Input #0, matroska,webm, from 'G:\Аниме\Онгоинги\!_36_Осень_2024\DreamCast\Цикл историй - Межсезонье и сезон монстров\DC_Monogatari_Series_Off_and_Monster_Season_06_Telegram_HEVC.mkv':
  Metadata:
    COMPATIBLE_BRANDS: isomiso2avc1mp41
    MAJOR_BRAND     : isom
    MINOR_VERSION   : 512
    ENCODER         : Lavf61.7.100
  Duration: 00:26:42.52, start: -0.021000, bitrate: 1754 kb/s
  Stream #0:0: Video: hevc (Main 10), yuv420p10le(tv, bt709, progressive), 1920x1080 [SAR 1:1 DAR 16:9], 23.98 fps, 23.98 tbr, 1k tbn (default)
      Metadata:
        HANDLER_NAME    : VideoHandler
        VENDOR_ID       : [0][0][0][0]
        ENCODER         : Lavc61.19.100 libx265
        BPS             : 1558592
        DURATION        : 00:26:41.516708333
        NUMBER_OF_FRAMES: 38398
        NUMBER_OF_BYTES : 312013871
        _STATISTICS_WRITING_APP: mkvpropedit v66.0.0 ('Josie') 64-bit
        _STATISTICS_WRITING_DATE_UTC: 2025-06-05 11:12:07
        _STATISTICS_TAGS: BPS DURATION NUMBER_OF_FRAMES NUMBER_OF_BYTES
  Stream #0:1: Audio: aac (LC), 48000 Hz, stereo, fltp (default)
      Metadata:
        HANDLER_NAME    : SoundHandler
        VENDOR_ID       : [0][0][0][0]
        ENCODER         : Lavc61.19.100 aac
        BPS             : 193011
        DURATION        : 00:26:42.517000000
        NUMBER_OF_FRAMES: 75119
        NUMBER_OF_BYTES : 38663016
        _STATISTICS_WRITING_APP: mkvpropedit v66.0.0 ('Josie') 64-bit
        _STATISTICS_WRITING_DATE_UTC: 2025-06-05 11:12:07
        _STATISTICS_TAGS: BPS DURATION NUMBER_OF_FRAMES NUMBER_OF_BYTES
Input #1, mov,mp4,m4a,3gp,3g2,mj2, from 'G:\Аниме\Онгоинги\!_36_Осень_2024\DreamCast\Цикл историй - Межсезонье и сезон монстров\DC_Monogatari_Series_Off_and_Monster_Season_06_Telegram.mp4':
  Metadata:
    major_brand     : isom
    minor_version   : 512
    compatible_brands: isomiso2avc1mp41
    encoder         : Lavf61.1.100
  Duration: 00:26:42.49, start: 0.000000, bitrate: 3615 kb/s
  Stream #1:0[0x1](und): Video: h264 (High) (avc1 / 0x31637661), yuv420p(tv, bt709, progressive), 1920x1080 [SAR 1:1 DAR 16:9], 3469 kb/s, 23.98 fps, 23.98 tbr, 24k tbn (default)
      Metadata:
        handler_name    : VideoHandler
        vendor_id       : [0][0][0][0]
        encoder         : Lavc61.3.100 h264_qsv
  Stream #1:1[0x2](und): Audio: aac (HE-AACv2) (mp4a / 0x6134706D), 48000 Hz, stereo, fltp, 144 kb/s (default)
      Metadata:
        handler_name    : SoundHandler
        vendor_id       : [0][0][0][0]
Stream mapping:
  Stream #0:0 (hevc) -> settb:default
  Stream #1:0 (h264) -> settb:default
  ssim:default -> Stream #0:0 (wrapped_avframe)
  Stream #0:1 -> #0:1 (aac (native) -> pcm_s16le (native))
Output #0, null, to 'pipe:':
  Metadata:
    COMPATIBLE_BRANDS: isomiso2avc1mp41
    MAJOR_BRAND     : isom
    MINOR_VERSION   : 512
    encoder         : Lavf61.7.100
  Stream #0:0: Video: wrapped_avframe, yuv420p10le(tv, bt709, progressive), 1920x1080 [SAR 1:1 DAR 16:9], q=2-31, 200 kb/s, 23.98 fps, 23.98 tbn
      Metadata:
        encoder         : Lavc61.19.100 wrapped_avframe
  Stream #0:1: Audio: pcm_s16le, 48000 Hz, stereo, s16, 1536 kb/s (default)
      Metadata:
        HANDLER_NAME    : SoundHandler
        VENDOR_ID       : [0][0][0][0]
        _STATISTICS_TAGS: BPS DURATION NUMBER_OF_FRAMES NUMBER_OF_BYTES
        BPS             : 193011
        DURATION        : 00:26:42.517000000
        NUMBER_OF_FRAMES: 75119
        NUMBER_OF_BYTES : 38663016
        _STATISTICS_WRITING_APP: mkvpropedit v66.0.0 ('Josie') 64-bit
        _STATISTICS_WRITING_DATE_UTC: 2025-06-05 11:12:07
        encoder         : Lavc61.19.100 pcm_s16le
frame=  160 fps=0.0 q=-0.0 size=N/A time=00:00:06.67 bitrate=N/A speed=13.2x    frame=  404 fps=393 q=-0.0 size=N/A time=00:00:16.85 bitrate=N/A speed=16.4x    frame=  644 fps=418 q=-0.0 size=N/A time=00:00:26.86 bitrate=N/A speed=17.5x    frame=  882 fps=427 q=-0.0 size=N/A time=00:00:36.78 bitrate=N/A speed=17.8x    frame= 1090 fps=423 q=-0.0 size=N/A time=00:00:45.46 bitrate=N/A speed=17.7x    frame= 1265 fps=410 q=-0.0 size=N/A time=00:00:52.76 bitrate=N/A speed=17.1x    frame= 1475 fps=410 q=-0.0 size=N/A time=00:01:01.51 bitrate=N/A speed=17.1x    frame= 1666 fps=404 q=-0.0 size=N/A time=00:01:09.48 bitrate=N/A speed=16.9x    frame= 1826 fps=394 q=-0.0 size=N/A time=00:01:16.15 bitrate=N/A speed=16.4x    frame= 1969 fps=382 q=-0.0 size=N/A time=00:01:22.12 bitrate=N/A speed=15.9x    frame= 2185 fps=386 q=-0.0 size=N/A time=00:01:31.13 bitrate=N/A speed=16.1x    frame= 2371 fps=384 q=-0.0 size=N/A time=00:01:38.89 bitrate=N/A speed=  16x    frame= 2562 fps=382 q=-0.0 size=N/A time=00:01:46.85 bitrate=N/A speed=15.9x    frame= 2748 fps=381 q=-0.0 size=N/A time=00:01:54.61 bitrate=N/A speed=15.9x    frame= 2985 fps=386 q=-0.0 size=N/A time=00:02:04.49 bitrate=N/A speed=16.1x    frame= 3198 fps=388 q=-0.0 size=N/A time=00:02:13.38 bitrate=N/A speed=16.2x    frame= 3431 fps=392 q=-0.0 size=N/A time=00:02:23.10 bitrate=N/A speed=16.3x    frame= 3673 fps=396 q=-0.0 size=N/A time=00:02:33.19 bitrate=N/A speed=16.5x    frame= 3900 fps=398 q=-0.0 size=N/A time=00:02:42.66 bitrate=N/A speed=16.6x    frame= 4142 fps=402 q=-0.0 size=N/A time=00:02:52.75 bitrate=N/A speed=16.7x    frame= 4328 fps=400 q=-0.0 size=N/A time=00:03:00.51 bitrate=N/A speed=16.7x    frame= 4550 fps=402 q=-0.0 size=N/A time=00:03:09.77 bitrate=N/A speed=16.7x    frame= 4754 fps=401 q=-0.0 size=N/A time=00:03:18.28 bitrate=N/A speed=16.7x    frame= 4990 fps=403 q=-0.0 size=N/A time=00:03:28.12 bitrate=N/A speed=16.8x    frame= 5221 fps=405 q=-0.0 size=N/A time=00:03:37.75 bitrate=N/A speed=16.9x    frame= 5413 fps=404 q=-0.0 size=N/A time=00:03:45.76 bitrate=N/A speed=16.8x    frame= 5645 fps=406 q=-0.0 size=N/A time=00:03:55.44 bitrate=N/A speed=16.9x    frame= 5846 fps=405 q=-0.0 size=N/A time=00:04:03.82 bitrate=N/A speed=16.9x    frame= 6095 fps=408 q=-0.0 size=N/A time=00:04:14.21 bitrate=N/A speed=  17x    frame= 6286 fps=407 q=-0.0 size=N/A time=00:04:22.17 bitrate=N/A speed=  17x    frame= 6524 fps=408 q=-0.0 size=N/A time=00:04:32.10 bitrate=N/A speed=  17x    frame= 6787 fps=411 q=-0.0 size=N/A time=00:04:43.07 bitrate=N/A speed=17.2x    frame= 6996 fps=411 q=-0.0 size=N/A time=00:04:51.79 bitrate=N/A speed=17.2x    frame= 7214 fps=411 q=-0.0 size=N/A time=00:05:00.88 bitrate=N/A speed=17.2x    frame= 7460 fps=414 q=-0.0 size=N/A time=00:05:11.14 bitrate=N/A speed=17.2x    frame= 7715 fps=416 q=-0.0 size=N/A time=00:05:21.77 bitrate=N/A speed=17.3x    frame= 7927 fps=416 q=-0.0 size=N/A time=00:05:30.62 bitrate=N/A speed=17.3x    frame= 8118 fps=415 q=-0.0 size=N/A time=00:05:38.58 bitrate=N/A speed=17.3x    frame= 8346 fps=415 q=-0.0 size=N/A time=00:05:48.09 bitrate=N/A speed=17.3x    frame= 8614 fps=418 q=-0.0 size=N/A time=00:05:59.27 bitrate=N/A speed=17.4x    frame= 8894 fps=421 q=-0.0 size=N/A time=00:06:10.95 bitrate=N/A speed=17.5x    frame= 9173 fps=424 q=-0.0 size=N/A time=00:06:22.59 bitrate=N/A speed=17.7x    frame= 9445 fps=426 q=-0.0 size=N/A time=00:06:33.93 bitrate=N/A speed=17.8x    frame= 9700 fps=428 q=-0.0 size=N/A time=00:06:44.57 bitrate=N/A speed=17.8x    frame= 9949 fps=429 q=-0.0 size=N/A time=00:06:54.95 bitrate=N/A speed=17.9x    frame=10208 fps=431 q=-0.0 size=N/A time=00:07:05.75 bitrate=N/A speed=  18x    frame=10498 fps=433 q=-0.0 size=N/A time=00:07:17.85 bitrate=N/A speed=18.1x    frame=10747 fps=434 q=-0.0 size=N/A time=00:07:28.23 bitrate=N/A speed=18.1x    frame=10985 fps=435 q=-0.0 size=N/A time=00:07:38.16 bitrate=N/A speed=18.1x    frame=11236 fps=436 q=-0.0 size=N/A time=00:07:48.63 bitrate=N/A speed=18.2x    frame=11522 fps=438 q=-0.0 size=N/A time=00:08:00.56 bitrate=N/A speed=18.3x    frame=11777 fps=439 q=-0.0 size=N/A time=00:08:11.19 bitrate=N/A speed=18.3x    frame=12007 fps=440 q=-0.0 size=N/A time=00:08:20.79 bitrate=N/A speed=18.3x    frame=12198 fps=438 q=-0.0 size=N/A time=00:08:28.75 bitrate=N/A speed=18.3x    frame=12412 fps=438 q=-0.0 size=N/A time=00:08:37.68 bitrate=N/A speed=18.3x    frame=12579 fps=436 q=-0.0 size=N/A time=00:08:44.64 bitrate=N/A speed=18.2x    frame=12801 fps=436 q=-0.0 size=N/A time=00:08:53.90 bitrate=N/A speed=18.2x    frame=12954 fps=433 q=-0.0 size=N/A time=00:09:00.28 bitrate=N/A speed=18.1x    frame=13158 fps=433 q=-0.0 size=N/A time=00:09:08.79 bitrate=N/A speed=  18x    frame=13411 fps=433 q=-0.0 size=N/A time=00:09:19.35 bitrate=N/A speed=18.1x    frame=13670 fps=435 q=-0.0 size=N/A time=00:09:30.15 bitrate=N/A speed=18.1x    frame=13845 fps=433 q=-0.0 size=N/A time=00:09:37.45 bitrate=N/A speed=18.1x    frame=14033 fps=432 q=-0.0 size=N/A time=00:09:45.29 bitrate=N/A speed=  18x    frame=14212 fps=431 q=-0.0 size=N/A time=00:09:52.75 bitrate=N/A speed=  18x    frame=14471 fps=432 q=-0.0 size=N/A time=00:10:03.56 bitrate=N/A speed=  18x    frame=14727 fps=433 q=-0.0 size=N/A time=00:10:14.23 bitrate=N/A speed=  18x    frame=14981 fps=434 q=-0.0 size=N/A time=00:10:24.83 bitrate=N/A speed=18.1x    frame=15193 fps=433 q=-0.0 size=N/A time=00:10:33.67 bitrate=N/A speed=18.1x    frame=15481 fps=435 q=-0.0 size=N/A time=00:10:45.68 bitrate=N/A speed=18.1x    frame=15688 fps=435 q=-0.0 size=N/A time=00:10:54.32 bitrate=N/A speed=18.1x    frame=15937 fps=435 q=-0.0 size=N/A time=00:11:04.70 bitrate=N/A speed=18.2x    frame=16187 fps=436 q=-0.0 size=N/A time=00:11:15.13 bitrate=N/A speed=18.2x    frame=16376 fps=435 q=-0.0 size=N/A time=00:11:23.01 bitrate=N/A speed=18.1x    frame=16598 fps=435 q=-0.0 size=N/A time=00:11:32.27 bitrate=N/A speed=18.1x    frame=16850 fps=436 q=-0.0 size=N/A time=00:11:42.78 bitrate=N/A speed=18.2x    frame=17109 fps=437 q=-0.0 size=N/A time=00:11:53.58 bitrate=N/A speed=18.2x    frame=17336 fps=437 q=-0.0 size=N/A time=00:12:03.05 bitrate=N/A speed=18.2x    frame=17591 fps=437 q=-0.0 size=N/A time=00:12:13.69 bitrate=N/A speed=18.2x    frame=17804 fps=437 q=-0.0 size=N/A time=00:12:22.57 bitrate=N/A speed=18.2x    frame=18062 fps=438 q=-0.0 size=N/A time=00:12:33.33 bitrate=N/A speed=18.3x    frame=18311 fps=438 q=-0.0 size=N/A time=00:12:43.72 bitrate=N/A speed=18.3x    frame=18520 fps=438 q=-0.0 size=N/A time=00:12:52.43 bitrate=N/A speed=18.3x    frame=18743 fps=438 q=-0.0 size=N/A time=00:13:01.73 bitrate=N/A speed=18.3x    frame=18996 fps=439 q=-0.0 size=N/A time=00:13:12.29 bitrate=N/A speed=18.3x    frame=19275 fps=440 q=-0.0 size=N/A time=00:13:23.92 bitrate=N/A speed=18.3x    frame=19507 fps=440 q=-0.0 size=N/A time=00:13:33.60 bitrate=N/A speed=18.4x    frame=19776 fps=441 q=-0.0 size=N/A time=00:13:44.82 bitrate=N/A speed=18.4x    frame=20027 fps=441 q=-0.0 size=N/A time=00:13:55.29 bitrate=N/A speed=18.4x    frame=20305 fps=442 q=-0.0 size=N/A time=00:14:06.88 bitrate=N/A speed=18.5x    frame=20579 fps=443 q=-0.0 size=N/A time=00:14:18.31 bitrate=N/A speed=18.5x    frame=20798 fps=443 q=-0.0 size=N/A time=00:14:27.44 bitrate=N/A speed=18.5x    frame=21062 fps=444 q=-0.0 size=N/A time=00:14:38.46 bitrate=N/A speed=18.5x    frame=21246 fps=443 q=-0.0 size=N/A time=00:14:46.13 bitrate=N/A speed=18.5x    frame=21501 fps=444 q=-0.0 size=N/A time=00:14:56.77 bitrate=N/A speed=18.5x    frame=21766 fps=444 q=-0.0 size=N/A time=00:15:07.82 bitrate=N/A speed=18.5x    frame=22028 fps=445 q=-0.0 size=N/A time=00:15:18.75 bitrate=N/A speed=18.6x    frame=22290 fps=446 q=-0.0 size=N/A time=00:15:29.67 bitrate=N/A speed=18.6x    frame=22517 fps=446 q=-0.0 size=N/A time=00:15:39.14 bitrate=N/A speed=18.6x    frame=22765 fps=446 q=-0.0 size=N/A time=00:15:49.49 bitrate=N/A speed=18.6x    frame=23011 fps=446 q=-0.0 size=N/A time=00:15:59.75 bitrate=N/A speed=18.6x    frame=23271 fps=447 q=-0.0 size=N/A time=00:16:10.59 bitrate=N/A speed=18.6x    frame=23533 fps=447 q=-0.0 size=N/A time=00:16:21.52 bitrate=N/A speed=18.7x    frame=23771 fps=448 q=-0.0 size=N/A time=00:16:31.44 bitrate=N/A speed=18.7x    frame=24028 fps=448 q=-0.0 size=N/A time=00:16:42.16 bitrate=N/A speed=18.7x    frame=24295 fps=449 q=-0.0 size=N/A time=00:16:53.30 bitrate=N/A speed=18.7x    frame=24546 fps=449 q=-0.0 size=N/A time=00:17:03.77 bitrate=N/A speed=18.7x    frame=24772 fps=449 q=-0.0 size=N/A time=00:17:13.19 bitrate=N/A speed=18.7x    frame=25010 fps=449 q=-0.0 size=N/A time=00:17:23.12 bitrate=N/A speed=18.7x    frame=25202 fps=448 q=-0.0 size=N/A time=00:17:31.13 bitrate=N/A speed=18.7x    frame=25379 fps=448 q=-0.0 size=N/A time=00:17:38.51 bitrate=N/A speed=18.7x    frame=25584 fps=447 q=-0.0 size=N/A time=00:17:47.06 bitrate=N/A speed=18.6x    frame=25821 fps=447 q=-0.0 size=N/A time=00:17:56.95 bitrate=N/A speed=18.6x    frame=26035 fps=447 q=-0.0 size=N/A time=00:18:05.87 bitrate=N/A speed=18.6x    frame=26251 fps=447 q=-0.0 size=N/A time=00:18:14.88 bitrate=N/A speed=18.6x    frame=26448 fps=446 q=-0.0 size=N/A time=00:18:23.10 bitrate=N/A speed=18.6x    frame=26634 fps=445 q=-0.0 size=N/A time=00:18:30.85 bitrate=N/A speed=18.6x    frame=26789 fps=444 q=-0.0 size=N/A time=00:18:37.32 bitrate=N/A speed=18.5x    frame=26906 fps=442 q=-0.0 size=N/A time=00:18:42.20 bitrate=N/A speed=18.4x    frame=27021 fps=440 q=-0.0 size=N/A time=00:18:47.00 bitrate=N/A speed=18.4x    frame=27171 fps=439 q=-0.0 size=N/A time=00:18:53.25 bitrate=N/A speed=18.3x    frame=27301 fps=438 q=-0.0 size=N/A time=00:18:58.67 bitrate=N/A speed=18.3x    frame=27440 fps=436 q=-0.0 size=N/A time=00:19:04.47 bitrate=N/A speed=18.2x    frame=27574 fps=435 q=-0.0 size=N/A time=00:19:10.06 bitrate=N/A speed=18.1x    frame=27696 fps=433 q=-0.0 size=N/A time=00:19:15.15 bitrate=N/A speed=18.1x    frame=27861 fps=432 q=-0.0 size=N/A time=00:19:22.03 bitrate=N/A speed=  18x    frame=28009 fps=431 q=-0.0 size=N/A time=00:19:28.20 bitrate=N/A speed=  18x    frame=28154 fps=430 q=-0.0 size=N/A time=00:19:34.25 bitrate=N/A speed=17.9x    frame=28295 fps=429 q=-0.0 size=N/A time=00:19:40.13 bitrate=N/A speed=17.9x    frame=28440 fps=428 q=-0.0 size=N/A time=00:19:46.18 bitrate=N/A speed=17.8x    frame=28583 fps=426 q=-0.0 size=N/A time=00:19:52.14 bitrate=N/A speed=17.8x    frame=28813 fps=427 q=-0.0 size=N/A time=00:20:01.74 bitrate=N/A speed=17.8x    frame=29065 fps=427 q=-0.0 size=N/A time=00:20:12.25 bitrate=N/A speed=17.8x    frame=29335 fps=428 q=-0.0 size=N/A time=00:20:23.51 bitrate=N/A speed=17.8x    frame=29605 fps=428 q=-0.0 size=N/A time=00:20:34.77 bitrate=N/A speed=17.9x    frame=29845 fps=429 q=-0.0 size=N/A time=00:20:44.78 bitrate=N/A speed=17.9x    frame=30126 fps=430 q=-0.0 size=N/A time=00:20:56.50 bitrate=N/A speed=17.9x    frame=30397 fps=430 q=-0.0 size=N/A time=00:21:07.80 bitrate=N/A speed=17.9x    frame=30640 fps=431 q=-0.0 size=N/A time=00:21:17.94 bitrate=N/A speed=  18x    frame=30894 fps=431 q=-0.0 size=N/A time=00:21:28.53 bitrate=N/A speed=  18x    frame=31100 fps=431 q=-0.0 size=N/A time=00:21:37.12 bitrate=N/A speed=  18x    frame=31355 fps=431 q=-0.0 size=N/A time=00:21:47.76 bitrate=N/A speed=  18x    frame=31639 fps=432 q=-0.0 size=N/A time=00:21:59.60 bitrate=N/A speed=  18x    frame=31908 fps=433 q=-0.0 size=N/A time=00:22:10.82 bitrate=N/A speed=  18x    frame=32139 fps=433 q=-0.0 size=N/A time=00:22:20.46 bitrate=N/A speed=18.1x    frame=32406 fps=434 q=-0.0 size=N/A time=00:22:31.60 bitrate=N/A speed=18.1x    frame=32678 fps=434 q=-0.0 size=N/A time=00:22:42.94 bitrate=N/A speed=18.1x    frame=32957 fps=435 q=-0.0 size=N/A time=00:22:54.58 bitrate=N/A speed=18.1x    frame=33234 fps=436 q=-0.0 size=N/A time=00:23:06.13 bitrate=N/A speed=18.2x    frame=33478 fps=436 q=-0.0 size=N/A time=00:23:16.31 bitrate=N/A speed=18.2x    frame=33714 fps=436 q=-0.0 size=N/A time=00:23:26.15 bitrate=N/A speed=18.2x    frame=33920 fps=436 q=-0.0 size=N/A time=00:23:34.74 bitrate=N/A speed=18.2x    frame=34168 fps=436 q=-0.0 size=N/A time=00:23:45.09 bitrate=N/A speed=18.2x    frame=34441 fps=437 q=-0.0 size=N/A time=00:23:56.47 bitrate=N/A speed=18.2x    frame=34713 fps=437 q=-0.0 size=N/A time=00:24:07.82 bitrate=N/A speed=18.2x    frame=34968 fps=438 q=-0.0 size=N/A time=00:24:18.45 bitrate=N/A speed=18.2x    frame=35222 fps=438 q=-0.0 size=N/A time=00:24:29.05 bitrate=N/A speed=18.3x    frame=35480 fps=438 q=-0.0 size=N/A time=00:24:39.81 bitrate=N/A speed=18.3x    frame=35756 fps=439 q=-0.0 size=N/A time=00:24:51.32 bitrate=N/A speed=18.3x    frame=36031 fps=440 q=-0.0 size=N/A time=00:25:02.79 bitrate=N/A speed=18.3x    frame=36324 fps=440 q=-0.0 size=N/A time=00:25:15.01 bitrate=N/A speed=18.4x    frame=36599 fps=441 q=-0.0 size=N/A time=00:25:26.48 bitrate=N/A speed=18.4x    frame=36879 fps=442 q=-0.0 size=N/A time=00:25:38.16 bitrate=N/A speed=18.4x    frame=37140 fps=442 q=-0.0 size=N/A time=00:25:49.04 bitrate=N/A speed=18.4x    frame=37379 fps=442 q=-0.0 size=N/A time=00:25:59.01 bitrate=N/A speed=18.4x    frame=37610 fps=442 q=-0.0 size=N/A time=00:26:08.65 bitrate=N/A speed=18.4x    frame=37852 fps=442 q=-0.0 size=N/A time=00:26:18.74 bitrate=N/A speed=18.4x    frame=38083 fps=442 q=-0.0 size=N/A time=00:26:28.37 bitrate=N/A speed=18.4x    frame=38332 fps=443 q=-0.0 size=N/A time=00:26:38.76 bitrate=N/A speed=18.5x    [Parsed_ssim_10 @ 000002f1ddc28e80] SSIM Y:0.994233 (22.390316) U:0.994445 (22.552872) V:0.993971 (22.197482) All:0.994224 (22.384049)
[out#0/null @ 000002f1d0ef2280] video:16499KiB audio:300476KiB subtitle:0KiB other streams:0KiB global headers:0KiB muxing overhead: unknown
frame=38398 fps=442 q=-0.0 Lsize=N/A time=00:26:41.51 bitrate=N/A speed=18.4x    
